<svg width="24" height="24" viewBox="0 0 24 24" fill="none" xmlns="http://www.w3.org/2000/svg">
<rect width="24" height="24" rx="8" fill="#FBDA5F"/>
<path d="M17.1055 5H6.8945C5.8481 5 5 5.8644 5 6.9307V17.0693C5 18.1356 5.8481 19 6.8945 19H17.1056C18.1519 19 19.0001 18.1356 19.0001 17.0693V6.9307C19.0001 5.8644 18.1519 5 17.1055 5ZM6.6509 7.4107C6.6509 7.0264 6.9566 6.7148 7.3337 6.7148H11.4509C11.828 6.7148 12.1337 7.0264 12.1337 7.4107V11.6066C12.1337 11.9909 11.828 12.3025 11.4509 12.3025H7.3337C6.9566 12.3025 6.6509 11.9909 6.6509 11.6066V7.4107ZM17.4383 17.134C17.4383 17.4006 17.2262 17.6167 16.9647 17.6167H7.1242C6.8626 17.6167 6.6506 17.4006 6.6506 17.134V16.2796C6.6506 16.013 6.8627 15.7969 7.1242 15.7969H16.9647C17.2263 15.7969 17.4383 16.013 17.4383 16.2796V17.134ZM17.4383 14.4769C17.4383 14.7435 17.2262 14.9596 16.9647 14.9596H7.1242C6.8626 14.9596 6.6506 14.7435 6.6506 14.4769V13.6225C6.6506 13.3559 6.8627 13.1398 7.1242 13.1398H16.9647C17.2263 13.1398 17.4383 13.3559 17.4383 13.6225V14.4769ZM17.4383 10.7978C17.4383 11.0644 17.2262 11.2805 16.9647 11.2805H13.8557C13.5941 11.2805 13.3821 11.0644 13.3821 10.7978V9.8324C13.3821 9.5658 13.5942 9.3497 13.8557 9.3497H16.9647C17.2263 9.3497 17.4383 9.5658 17.4383 9.8324V10.7978ZM17.4383 8.2534C17.4383 8.52 17.2262 8.7361 16.9647 8.7361H13.8557C13.5941 8.7361 13.3821 8.52 13.3821 8.2534V7.288C13.3821 7.0214 13.5942 6.8053 13.8557 6.8053H16.9647C17.2263 6.8053 17.4383 7.0214 17.4383 7.288V8.2534Z" fill="#101010"/>
</svg>
