<svg width="24" height="24" viewBox="0 0 24 24" fill="none" xmlns="http://www.w3.org/2000/svg">
<path d="M10.4316 2.95312C11.754 2.56759 13.1334 3.26976 13.6182 4.5332C14.0044 4.43757 14.4109 4.38478 14.834 4.38477C17.7444 4.38477 20.1043 6.74397 20.1045 9.6543C20.1045 9.90822 20.0825 10.1543 20.0459 10.3916C20.6021 10.7469 20.9717 11.3695 20.9717 12.0781V17.0781C20.9714 19.8378 18.7314 22.078 15.9717 22.0781H8.02832C5.2685 22.0781 3.02858 19.8379 3.02832 17.0781V12.0781C3.02832 11.2977 3.47663 10.6225 4.12891 10.293L3.38574 7.74609C2.97948 6.35265 3.78028 4.89264 5.17383 4.48633L10.4316 2.95312ZM5.02832 17.0781C5.02858 18.7333 6.37307 20.0781 8.02832 20.0781H15.9717C17.6269 20.078 18.9714 18.7333 18.9717 17.0781V12.0781H5.02832V17.0781ZM13.9053 12.9248C14.4576 12.9248 14.9053 13.3725 14.9053 13.9248C14.9053 14.4771 14.4576 14.9248 13.9053 14.9248H10.0938C9.54147 14.9248 9.09375 14.4771 9.09375 13.9248C9.09375 13.3725 9.54147 12.9248 10.0938 12.9248H13.9053ZM10.9922 4.87305L5.7334 6.40723C5.40055 6.50433 5.20878 6.85254 5.30566 7.18555L6.14941 10.0781H13.1631L12.0068 6.11133C12.0065 6.11034 12.0061 6.10939 12.0059 6.1084L11.7705 5.30078C11.6734 4.96795 11.3252 4.77623 10.9922 4.87305ZM14.834 6.38477C14.615 6.38478 14.4001 6.40779 14.1904 6.45312L15.1855 9.86621L15.2471 10.0781H18.0713C18.0926 9.93736 18.1045 9.79571 18.1045 9.6543C18.1043 7.84857 16.6399 6.38477 14.834 6.38477Z" fill="black" fill-opacity="0.5"/>
</svg>
