<svg width="24" height="24" viewBox="0 0 24 24" fill="none" xmlns="http://www.w3.org/2000/svg">
<rect width="24" height="24" rx="8" fill="#2EA9FF"/>
<path d="M18.6539 11.1259L12.8741 5.346C12.6526 5.12446 12.3521 5 12.0387 5H8.51124C6.57204 5 5 6.57204 5 8.51133V15.4887C5 17.4279 6.57204 19 8.51133 19H15.4887C17.4279 19 19 17.428 19 15.4887V11.9612C19 11.6478 18.8755 11.3475 18.6539 11.1259ZM17.5281 12.023C12.9761 12.3536 11.5109 10.5072 11.7233 6.28997C11.7354 6.05041 12.0284 5.93513 12.2019 6.10065L17.7031 11.5346C17.8791 11.7025 17.7708 12.0054 17.5281 12.023Z" fill="#101010"/>
</svg>
