<svg width="28" height="28" viewBox="0 0 28 28" fill="none" xmlns="http://www.w3.org/2000/svg">
<path d="M17 19C17.6443 19 18.167 19.5227 18.167 20.167C18.167 20.8113 17.6443 21.334 17 21.334H10C9.35567 21.334 8.83301 20.8113 8.83301 20.167C8.83301 19.5227 9.35567 19 10 19H17ZM20.5 12C21.1443 12 21.667 12.5227 21.667 13.167C21.667 13.8113 21.1443 14.334 20.5 14.334H6.5C5.85567 14.334 5.33301 13.8113 5.33301 13.167C5.33301 12.5227 5.85567 12 6.5 12H20.5ZM22.833 5C23.4773 5 24 5.52266 24 6.16699C24 6.81132 23.4773 7.33398 22.833 7.33398H4.16699C3.52266 7.33398 3 6.81132 3 6.16699C3 5.52266 3.52266 5 4.16699 5H22.833Z" fill="#101010"/>
</svg>
