<svg width="24" height="24" viewBox="0 0 24 24" fill="none" xmlns="http://www.w3.org/2000/svg">
<path d="M9.57031 3.85352C11.0374 2.69004 13.1154 2.69936 14.5713 3.87695L19.0156 7.47168C19.9545 8.2311 20.5 9.37443 20.5 10.582V17.0127C20.5 19.2219 18.7092 21.0127 16.5 21.0127H12.1084C12.0728 21.0165 12.0366 21.0186 12 21.0186C11.9634 21.0186 11.9272 21.0165 11.8916 21.0127H7.5C5.29081 21.0127 3.5 19.2219 3.5 17.0127V10.5996C3.50009 9.37867 4.05793 8.22456 5.01465 7.46582L9.57031 3.85352ZM13.3135 5.43262C12.5855 4.84381 11.546 4.83821 10.8125 5.41992L6.25684 9.0332C5.77879 9.41254 5.50009 9.98937 5.5 10.5996V17.0127C5.5 18.1173 6.39539 19.0127 7.5 19.0127H11V17.125C11 16.5727 11.4477 16.125 12 16.125C12.5523 16.125 13 16.5727 13 17.125V19.0127H16.5C17.6046 19.0127 18.5 18.1173 18.5 17.0127V10.582C18.5 9.97837 18.2272 9.40709 17.7578 9.02734L13.3135 5.43262Z" fill="black" fill-opacity="0.8"/>
</svg>
