<svg width="24" height="24" viewBox="0 0 24 24" fill="none" xmlns="http://www.w3.org/2000/svg">
<rect width="24" height="24" rx="8" fill="#07C403"/>
<path d="M9.44792 6.78446L9.97707 6.25531C10.9282 5.30414 12.1627 4.64133 13.5026 4.52242C15.1556 4.37581 16.7356 4.95308 17.8913 6.10879C19.047 7.2645 19.6243 8.84457 19.4776 10.4977C19.3586 11.8375 18.6958 13.0719 17.7448 14.0231L17.2157 14.5521C16.9547 14.8132 16.5314 14.8132 16.2704 14.5521L15.6256 13.9074C15.3646 13.6464 15.3646 13.2232 15.6256 12.9622L16.1764 12.4114C17.5006 11.0873 17.5717 8.84538 16.1844 7.58749C15.5675 7.02821 14.7875 6.74866 14.0074 6.74866C13.1772 6.74866 12.347 7.06536 11.7136 7.69884L11.0381 8.37442C10.777 8.63545 10.3539 8.63545 10.0927 8.37442L9.44801 7.7297C9.18699 7.46867 9.1869 7.04557 9.44792 6.78446ZM13.6683 15.8647C13.4073 15.6037 12.9841 15.6037 12.723 15.8647L12.2864 16.3013C11.653 16.9347 10.8227 17.2514 9.99263 17.2514C9.21254 17.2514 8.43235 16.9718 7.8155 16.4125C6.42819 15.1547 6.49942 12.9129 7.82351 11.5887L8.13526 11.277C8.39628 11.0159 8.39628 10.5927 8.13526 10.3316L7.49053 9.68691C7.22951 9.42589 6.80632 9.42589 6.54521 9.68691L6.25522 9.97689C5.30405 10.9282 4.64133 12.1627 4.52242 13.5026C4.37581 15.1556 4.95308 16.7356 6.1087 17.8913C7.26432 19.047 8.84439 19.6243 10.4974 19.4776C11.8373 19.3586 13.0718 18.6959 14.023 17.7448L14.313 17.4548C14.574 17.1937 14.574 16.7706 14.313 16.5095L13.6683 15.8647ZM10.8785 14.2463C11.1666 14.2463 11.4538 14.1365 11.6734 13.9169L13.9168 11.6736C14.356 11.2344 14.356 10.5229 13.9168 10.0837C13.4776 9.64454 12.7661 9.64454 12.3269 10.0837L10.0836 12.3271C9.64436 12.7663 9.64436 13.4777 10.0836 13.9169C10.3031 14.1365 10.5904 14.2463 10.8785 14.2463Z" fill="#101010"/>
</svg>
