<svg width="24" height="24" viewBox="0 0 24 24" fill="none" xmlns="http://www.w3.org/2000/svg">
<path d="M19.3989 9.1648L16.1027 8.2773C15.918 8.2276 15.7724 8.0819 15.7226 7.8972L14.8351 4.601C14.4852 3.3014 13.3458 2.4282 12 2.4282C10.6542 2.4282 9.51484 3.3014 9.16494 4.601L8.27744 7.8972C8.22775 8.0819 8.08204 8.2275 7.89734 8.2773L4.60114 9.1648C3.30154 9.5147 2.42834 10.6541 2.42834 12C2.42834 13.3459 3.30154 14.4852 4.60114 14.8351L7.89734 15.7226C8.08204 15.7723 8.22764 15.918 8.27744 16.1027L9.16494 19.3989C9.51484 20.6985 10.6542 21.5717 12 21.5717C13.3458 21.5717 14.4852 20.6985 14.8351 19.3989L15.7226 16.1027C15.7723 15.918 15.918 15.7724 16.1027 15.7226L19.3989 14.8351C20.6985 14.4852 21.5717 13.3458 21.5717 12C21.5717 10.6542 20.6985 9.5147 19.3989 9.1648ZM18.879 12.9039L15.5828 13.7914C14.7091 14.0266 14.0267 14.7091 13.7915 15.5827L12.904 18.8789C12.7797 19.3407 12.3899 19.5716 12.0001 19.5716C11.6103 19.5716 11.2205 19.3406 11.0962 18.8789L10.2087 15.5827C9.97355 14.709 9.29105 14.0266 8.41745 13.7914L5.12124 12.9039C4.19764 12.6552 4.19764 11.3447 5.12124 11.096L8.41745 10.2085C9.29115 9.9733 9.97355 9.2908 10.2087 8.4172L11.0962 5.121C11.2205 4.6591 11.6104 4.4283 12.0001 4.4283C12.3898 4.4283 12.7797 4.6592 12.904 5.121L13.7915 8.4172C14.0267 9.2909 14.7092 9.9733 15.5828 10.2085L18.879 11.096C19.8026 11.3447 19.8026 12.6552 18.879 12.9039Z" fill="black" fill-opacity="0.5"/>
</svg>
