<svg width="24" height="24" viewBox="0 0 24 24" fill="none" xmlns="http://www.w3.org/2000/svg">
<path d="M12 2.1001C15.866 2.1001 19 5.2341 19 9.1001C19 11.9173 17.3346 14.3433 14.9355 15.4536C17.0295 16.1748 18.7693 17.6436 19.8643 19.5249C20.1421 20.0022 19.9803 20.6143 19.5029 20.8921C19.0256 21.1698 18.4135 21.0081 18.1357 20.5308C16.8952 18.3994 14.6217 16.9644 12 16.9644C9.37829 16.9644 7.10481 18.3993 5.86426 20.5308C5.58645 21.0081 4.9744 21.1699 4.49707 20.8921C4.01987 20.6142 3.85797 20.0022 4.13574 19.5249C5.2305 17.6439 6.96998 16.1749 9.06348 15.4536C6.6649 14.3432 5 11.917 5 9.1001C5 5.2341 8.13401 2.1001 12 2.1001ZM12 4.1001C9.23858 4.1001 7 6.33867 7 9.1001C7 11.8615 9.23858 14.1001 12 14.1001C14.7614 14.1001 17 11.8615 17 9.1001C17 6.33867 14.7614 4.1001 12 4.1001Z" fill="black" fill-opacity="0.5"/>
</svg>
