<svg width="24" height="24" viewBox="0 0 24 24" fill="none" xmlns="http://www.w3.org/2000/svg">
<path d="M11.6865 2.79102C16.3809 2.79102 20.1865 6.5966 20.1865 11.291C20.1865 13.5816 19.2789 15.659 17.8057 17.1875L19.9199 19.3018C20.3105 19.6923 20.3104 20.3263 19.9199 20.7168C19.5294 21.107 18.8963 21.107 18.5059 20.7168L16.249 18.46C14.9305 19.3009 13.3663 19.791 11.6865 19.791C6.9921 19.791 3.18652 15.9854 3.18652 11.291C3.18652 6.5966 6.9921 2.79102 11.6865 2.79102ZM11.6865 4.79102C8.09667 4.79102 5.18652 7.70116 5.18652 11.291C5.18652 14.8809 8.09667 17.791 11.6865 17.791C15.2764 17.791 18.1865 14.8809 18.1865 11.291C18.1865 7.70116 15.2764 4.79102 11.6865 4.79102Z" fill="black" fill-opacity="0.5"/>
</svg>
